<svg width="64" height="44" viewBox="0 0 64 44" fill="none" xmlns="http://www.w3.org/2000/svg">
<path d="M44.9917 14.2617H17.4749C16.8978 14.2617 16.4288 14.7325 16.479 15.2855C17.0821 21.8704 23.4574 27.052 31.2324 27.052C39.0074 27.052 45.3826 21.8704 45.9857 15.2855C46.0378 14.7325 45.5688 14.2617 44.9917 14.2617Z" fill="#FF6633"/>
<path d="M26.2655 4.40841C25.9584 4.40841 25.6531 4.27596 25.4539 4.0218C24.4488 2.75101 22.539 1.95989 20.471 1.95989C18.403 1.95989 16.4932 2.74922 15.4881 4.0218C15.1475 4.45316 14.5071 4.53549 14.0604 4.20795C13.6118 3.88041 13.5262 3.2647 13.8668 2.83513C15.2703 1.05959 17.7385 0 20.471 0C23.2035 0 25.6717 1.05959 27.0771 2.83513C27.4177 3.26648 27.3302 3.88041 26.8835 4.20795C26.6974 4.34398 26.4814 4.40841 26.2655 4.40841Z" fill="#414141"/>
<path d="M47.7877 4.40841C47.4806 4.40841 47.1753 4.27596 46.9762 4.0218C45.971 2.75101 44.0612 1.95989 41.9932 1.95989C39.9252 1.95989 38.0155 2.74922 37.0103 4.0218C36.6697 4.45316 36.0294 4.53549 35.5826 4.20795C35.134 3.88041 35.0484 3.2647 35.389 2.83513C36.7925 1.05959 39.2607 0 41.9932 0C44.7258 0 47.1939 1.05959 48.5993 2.83513C48.9399 3.26648 48.8524 3.88041 48.4057 4.20795C48.2196 4.34398 48.0037 4.40841 47.7877 4.40841Z" fill="#414141"/>
<path d="M2.85197 30.0031L2.45178 31.0216C2.41641 31.1057 2.28797 31.1397 2.16885 31.0985C1.89708 31.0198 1.61601 30.8784 1.32192 30.6707C1.02968 30.4667 0.798866 30.2501 0.627619 30.0228C0.368886 29.6774 0.188332 29.3015 0.087817 28.9006C-0.00897503 28.4961 -0.0238661 28.1059 0.0338368 27.7229C0.0952625 27.3434 0.236728 26.9765 0.456371 26.6257C0.677876 26.2749 0.962668 25.976 1.32005 25.729C1.67558 25.482 2.06089 25.3137 2.47597 25.2224C2.89106 25.1311 3.29871 25.1168 3.69332 25.1813C4.09352 25.2457 4.47324 25.3835 4.83807 25.6001C5.20663 25.8149 5.5212 26.0977 5.77993 26.4431C5.9456 26.6651 6.0852 26.9461 6.19316 27.2808C6.30484 27.6155 6.36068 27.9287 6.35882 28.2222C6.36068 28.3404 6.2732 28.4298 6.17641 28.4334L5.04841 28.4639C4.94045 28.4639 4.8511 28.3672 4.8511 28.2294C4.85482 28.0629 4.83249 27.8947 4.77851 27.7193C4.72453 27.5439 4.65566 27.3989 4.57003 27.2843C4.29269 26.9156 3.92413 26.6919 3.46251 26.6203C3.00461 26.5469 2.58766 26.6436 2.20421 26.9085C1.82449 27.1716 1.5974 27.5224 1.52667 27.9645C1.45966 28.403 1.5639 28.8111 1.84124 29.1798C1.92687 29.2943 2.04413 29.4017 2.19677 29.502C2.35126 29.604 2.50203 29.681 2.65653 29.7293C2.8073 29.7758 2.89106 29.8957 2.85197 30.0031Z" fill="#414141"/>
<path d="M7.35479 28.8361C7.44786 28.7377 7.56699 28.7341 7.6675 28.8236L10.5638 31.3831C10.6662 31.4726 10.6699 31.5872 10.5768 31.6838L9.92536 32.364C9.82671 32.4678 9.72061 32.4713 9.61265 32.3765L7.6582 30.6493L6.97321 31.3652L8.45673 32.6772C8.56841 32.7756 8.57958 32.8938 8.47907 32.9976L7.94113 33.5596C7.84806 33.658 7.72334 33.6562 7.61352 33.5596L6.13 32.2476L5.42639 32.985L7.38085 34.7122C7.51859 34.834 7.52976 34.9915 7.41249 35.1114L6.80196 35.7504C6.71075 35.8452 6.58976 35.847 6.48925 35.7575L3.53337 33.1479C3.43099 33.0584 3.42354 32.9474 3.51661 32.849L7.35479 28.8361Z" fill="#414141"/>
<path d="M13.6204 37.2574C13.6129 37.542 13.5292 37.8087 13.3672 38.0575C13.0601 38.5318 12.6618 38.8038 12.1722 38.8754C11.6864 38.9488 11.1559 38.8164 10.5845 38.4727L8.57232 37.2664C8.47925 37.2109 8.46249 37.1393 8.51834 37.0534L11.5822 32.3282C11.638 32.2422 11.7125 32.2261 11.8037 32.2816L13.6669 33.3985C14.2123 33.726 14.5529 34.1055 14.6907 34.5386C14.8284 34.9718 14.7503 35.4174 14.4562 35.8721C14.2198 36.2372 13.8065 36.477 13.3914 36.4896C13.5515 36.7187 13.6278 36.9728 13.6204 37.2574ZM11.2862 37.3559C11.6157 37.5545 11.9545 37.4811 12.1555 37.1715C12.3528 36.8672 12.2653 36.554 11.934 36.3571L11.0889 35.8506L10.4411 36.8493L11.2862 37.3559ZM12.2374 34.0822L11.6901 34.9252L12.3882 35.3441C12.6692 35.5123 12.9484 35.4532 13.116 35.1937C13.2835 34.9342 13.2146 34.6693 12.9335 34.501L12.2374 34.0822Z" fill="#414141"/>
<path d="M16.4647 35.1866C16.5168 35.0631 16.6248 35.0184 16.7532 35.0685L20.4034 36.4771C20.5318 36.5272 20.5784 36.6311 20.5262 36.7546L20.1689 37.6119C20.1149 37.7425 20.0162 37.7819 19.8803 37.73L17.4159 36.7796L17.0399 37.6817L18.9106 38.403C19.0502 38.4567 19.1041 38.5641 19.0502 38.6948L18.7542 39.4035C18.7021 39.527 18.5867 39.5682 18.4471 39.5145L16.5764 38.7932L16.1892 39.7221L18.6537 40.6725C18.8287 40.7406 18.8957 40.882 18.8305 41.0359L18.4936 41.8413C18.4434 41.9612 18.3317 42.0042 18.2032 41.9541L14.4786 40.5168C14.3502 40.4667 14.3018 40.3665 14.3539 40.243L16.4647 35.1866Z" fill="#414141"/>
<path d="M23.9774 37.3449C24.614 37.4792 25.0886 37.7691 25.4013 38.2184C25.714 38.6641 25.8053 39.1885 25.6656 39.7935C25.5298 40.3913 25.2189 40.828 24.7405 41.1054C24.2622 41.3793 23.7075 41.4509 23.069 41.3166L22.3542 41.1663L21.9969 42.7288C21.9671 42.8577 21.8684 42.9203 21.7251 42.8899L20.679 42.6698C20.545 42.6411 20.4854 42.5463 20.5133 42.4174L21.7288 37.0961C21.7567 36.9744 21.8628 36.9028 21.9894 36.9297L22.5162 37.0407L23.0467 37.1534L23.9774 37.3449ZM23.3035 40.01C23.512 40.0548 23.7019 40.0244 23.8675 39.9241C24.0369 39.8239 24.143 39.6735 24.1896 39.4731C24.2361 39.2726 24.2045 39.0936 24.0946 38.9343C23.9904 38.7715 23.8303 38.6676 23.6218 38.6247L22.9685 38.4869L22.6521 39.874L23.3035 40.01Z" fill="#414141"/>
<path d="M31.2777 38.1312C31.408 38.1383 31.4899 38.2314 31.4825 38.3549L31.1697 43.7996C31.1623 43.9321 31.0785 44.009 30.9408 44.0001L29.8724 43.9428C29.7253 43.9356 29.6471 43.8497 29.6546 43.7173L29.7476 42.0957L29.1259 42.0635L28.1375 43.6708C28.0501 43.8068 27.9942 43.8444 27.8732 43.8372L26.6242 43.771C26.4902 43.7638 26.4232 43.6314 26.4958 43.5186L27.6741 41.6679C27.097 41.2956 26.7843 40.671 26.8271 39.9353C26.8625 39.3214 27.0914 38.8382 27.5177 38.4891C27.944 38.1365 28.4856 37.9808 29.1371 38.0148L31.0041 38.1133L31.2777 38.1312ZM29.8202 40.8392L29.904 39.3769L29.1241 39.3357C28.9063 39.325 28.7239 39.3823 28.5787 39.5076C28.4335 39.6328 28.3535 39.7975 28.3404 40.0069C28.3293 40.2163 28.3888 40.3953 28.5191 40.551C28.6531 40.7032 28.8281 40.7855 29.0403 40.7962L29.8202 40.8392Z" fill="#414141"/>
<path d="M37.8854 37.5528C37.9896 37.5402 38.0492 37.5868 38.0622 37.6906L38.7509 43.2177C38.764 43.3215 38.7156 43.3788 38.6132 43.3913L37.4387 43.5273C37.3344 43.5398 37.2749 43.4933 37.2618 43.3895L36.9882 41.1933L34.7173 41.4547L34.9909 43.6508C35.004 43.7546 34.9556 43.8119 34.8532 43.8244L33.6824 43.9587C33.5744 43.9712 33.5149 43.9247 33.5018 43.8209L32.8131 38.2938C32.8001 38.19 32.8485 38.1327 32.9564 38.1202L34.1272 37.9859C34.2315 37.9734 34.2911 38.0199 34.3041 38.1237L34.5554 40.1409L36.8263 39.8796L36.575 37.8624C36.5619 37.7586 36.6103 37.7013 36.7127 37.6888L37.8854 37.5528Z" fill="#414141"/>
<path d="M39.7982 38.9775C39.8317 38.564 39.9396 38.1864 40.1183 37.8463C40.3008 37.5045 40.552 37.1966 40.8741 36.9281C41.1942 36.6561 41.5609 36.4556 41.9779 36.3232C42.3948 36.1907 42.8136 36.1424 43.2362 36.1782C43.6606 36.2086 44.0533 36.3124 44.407 36.4842C44.7644 36.6543 45.0864 36.8959 45.3656 37.2091C45.6485 37.517 45.857 37.8696 45.9947 38.2705C46.1771 38.8021 46.2107 39.3337 46.0971 39.8599C45.9836 40.3879 45.7434 40.8533 45.3656 41.2578C44.9933 41.6605 44.528 41.9469 43.9714 42.1241C43.5545 42.2565 43.1356 42.3048 42.7112 42.2744C42.285 42.2404 41.8922 42.1366 41.5349 41.9666C41.1812 41.7947 40.861 41.5549 40.58 41.2488C40.3026 40.9392 40.0923 40.5866 39.9564 40.1892C39.8168 39.7883 39.7665 39.3856 39.7982 38.9775ZM42.218 40.66C42.6256 40.8568 43.0519 40.8819 43.4968 40.7405C43.9379 40.6009 44.2599 40.336 44.4665 39.9458C44.6713 39.5538 44.7048 39.1511 44.5577 38.7269C44.4107 38.2991 44.1333 37.9895 43.7257 37.7926C43.3181 37.5957 42.8937 37.5653 42.4544 37.7049C42.0132 37.8445 41.6875 38.113 41.4827 38.505C41.278 38.897 41.2463 39.305 41.3934 39.731C41.5386 40.157 41.8122 40.4631 42.218 40.66Z" fill="#414141"/>
<path d="M49.9473 32.774C50.0478 32.7185 50.1725 32.7561 50.2377 32.8635L53.067 37.5816C53.1284 37.6818 53.0949 37.8124 52.9888 37.8697L52.0507 38.3888C51.9464 38.4478 51.818 38.4103 51.7566 38.31L50.8017 36.7188C50.6844 37.1037 50.3978 37.4706 49.9938 37.6961C49.3703 38.0415 48.7486 38.131 48.1306 37.9682C47.5108 37.8017 47.01 37.4026 46.6303 36.769L45.7722 35.3371C45.7108 35.2368 45.7387 35.1044 45.8374 35.0507L46.7681 34.5352C46.8835 34.4708 47.0193 34.503 47.0826 34.6104L47.9389 36.0387C48.2665 36.5846 48.797 36.7224 49.3665 36.4074C49.6532 36.2481 49.8282 36.0441 49.9045 35.7935C49.9808 35.5429 49.9417 35.2852 49.7854 35.0238L48.9254 33.5884C48.864 33.4882 48.8956 33.3539 48.998 33.2984L49.9473 32.774Z" fill="#414141"/>
<path d="M59.2314 32.6002C59.3747 32.6342 59.4436 32.7631 59.3356 32.8562L58.3007 33.7457C58.2356 33.8012 58.1574 33.8263 58.0736 33.8155L55.3876 33.1461L54.7455 33.6974L56.2309 35.2957C56.3035 35.3745 56.2997 35.4479 56.2216 35.5141L55.3337 36.2784C55.2518 36.3482 55.1755 36.3446 55.1029 36.2658L51.2498 32.1187C51.1809 32.0436 51.1846 31.9702 51.2647 31.9004L52.1526 31.1361C52.2307 31.0699 52.3071 31.0735 52.3778 31.1486L53.7924 32.6718L54.295 32.2404L54.0586 29.6989C54.0437 29.5449 54.0921 29.4823 54.2019 29.3874L55.2276 28.5068C55.343 28.4084 55.4696 28.4835 55.4826 28.6428L55.7599 31.7482L59.2314 32.6002Z" fill="#414141"/>
<path d="M63.8453 26.6721C63.9886 26.7062 64.0463 26.8082 63.9533 26.937L63.2701 27.8713C63.2031 27.9626 63.0747 28.0002 62.9518 27.9716L62.1366 27.7443L60.9173 29.4106L61.4143 30.0657C61.4907 30.157 61.4962 30.2894 61.4218 30.3897L60.7405 31.3204C60.6512 31.4421 60.5339 31.4367 60.4446 31.3114L57.0959 26.4216C57.0215 26.307 57.0252 26.1764 57.0922 26.0851L57.6004 25.3906C57.6674 25.2993 57.8014 25.2564 57.9261 25.2868L63.8453 26.6721ZM60.13 28.3761L60.8559 27.3827L58.9778 26.8547L60.13 28.3761Z" fill="#414141"/>
</svg>
